<svg width="354" height="113" viewBox="0 0 354 113" fill="none" xmlns="http://www.w3.org/2000/svg">
<path d="M44.2051 29.3438L58.8779 14.3047H66.4707L49.4297 31.3701L66.5684 52H58.9512L45.377 35.2275L44.2051 36.3994V52H38.5166V14.3047H44.2051V29.3438ZM76.2959 28.2207V41.8682C76.2959 45.807 77.8503 47.7764 80.959 47.7764C84.0677 47.7764 85.6221 45.807 85.6221 41.8682V28.2207H91.1152V41.9902C91.1152 43.8945 90.8792 45.5384 90.4072 46.9219C89.9515 48.1589 89.1621 49.2738 88.0391 50.2666C86.1836 51.8779 83.8236 52.6836 80.959 52.6836C78.1107 52.6836 75.7588 51.8779 73.9033 50.2666C72.764 49.2738 71.9583 48.1589 71.4863 46.9219C71.0306 45.8151 70.8027 44.1712 70.8027 41.9902V28.2207H76.2959ZM105.042 10.7646V52H99.5488V10.7646H105.042ZM119.164 33.3477V52H113.671V33.3477H111.327V28.2207H113.671V19.5049H119.164V28.2207H123.437V33.3477H119.164ZM134.165 28.2207V41.8682C134.165 45.807 135.719 47.7764 138.828 47.7764C141.937 47.7764 143.491 45.807 143.491 41.8682V28.2207H148.984V41.9902C148.984 43.8945 148.748 45.5384 148.276 46.9219C147.821 48.1589 147.031 49.2738 145.908 50.2666C144.053 51.8779 141.693 52.6836 138.828 52.6836C135.98 52.6836 133.628 51.8779 131.772 50.2666C130.633 49.2738 129.827 48.1589 129.355 46.9219C128.9 45.8151 128.672 44.1712 128.672 41.9902V28.2207H134.165ZM157.418 28.2207H162.911V30.3447C163.92 29.2868 164.815 28.5625 165.597 28.1719C166.394 27.765 167.338 27.5615 168.429 27.5615C169.877 27.5615 171.391 28.0335 172.97 28.9775L170.455 34.0068C169.413 33.2581 168.396 32.8838 167.403 32.8838C164.409 32.8838 162.911 35.1462 162.911 39.6709V52H157.418V28.2207ZM178.4 28.2207H183.918V30.418C185.839 28.5137 188.003 27.5615 190.412 27.5615C193.179 27.5615 195.336 28.4323 196.882 30.1738C198.216 31.6549 198.884 34.0719 198.884 37.4248V52H193.366V38.7188C193.366 36.375 193.041 34.7555 192.39 33.8604C191.755 32.9489 190.599 32.4932 188.923 32.4932C187.1 32.4932 185.806 33.0954 185.041 34.2998C184.292 35.488 183.918 37.5632 183.918 40.5254V52H178.4V28.2207ZM224.871 28.2207H230.389V52H224.871V49.5098C222.609 51.6257 220.175 52.6836 217.571 52.6836C214.284 52.6836 211.565 51.4954 209.417 49.1191C207.285 46.694 206.219 43.6667 206.219 40.0371C206.219 36.4727 207.285 33.5023 209.417 31.126C211.549 28.7497 214.218 27.5615 217.425 27.5615C220.192 27.5615 222.674 28.7008 224.871 30.9795V28.2207ZM211.834 40.0371C211.834 42.3158 212.444 44.1712 213.665 45.6035C214.918 47.0521 216.497 47.7764 218.401 47.7764C220.436 47.7764 222.08 47.0765 223.333 45.6768C224.586 44.2282 225.213 42.389 225.213 40.1592C225.213 37.9294 224.586 36.0902 223.333 34.6416C222.08 33.2256 220.452 32.5176 218.45 32.5176C216.562 32.5176 214.983 33.2337 213.714 34.666C212.461 36.1146 211.834 37.9049 211.834 40.0371ZM244.486 33.3477V52H238.993V33.3477H236.649V28.2207H238.993V19.5049H244.486V28.2207H248.759V33.3477H244.486Z" fill="white"/>
<mask id="mask0_912_778" style="mask-type:luminance" maskUnits="userSpaceOnUse" x="0" y="32" width="354" height="81">
<path d="M0 32.8699H354V113H0V32.8699Z" fill="white"/>
</mask>
<g mask="url(#mask0_912_778)">
<path fill-rule="evenodd" clip-rule="evenodd" d="M263.142 33.4528C261.173 34.3492 258.476 37.6642 243.335 57.839L239.984 62.3065L239.223 62.278C238.81 62.2638 237.537 62.1642 236.406 62.0362C233.143 61.6805 229.303 61.4386 221.145 61.0972C216.783 60.9122 206.896 60.9122 203.285 61.1114C200.576 61.2537 200.206 61.2394 198.172 60.9691C194.148 60.4285 193.017 60.6988 192.397 62.3492C191.787 63.9711 192.375 65.5789 195.692 71.3837C202.741 83.7191 206.134 90.8898 209.06 99.6825L209.485 100.963L208.114 101.205C204.438 101.859 201.425 101.902 200.304 101.319C199.086 100.693 198.847 100.052 198.64 96.7089C198.172 89.4955 196.345 86.6785 191.385 85.5118C186.729 84.4163 182.944 85.8533 174.188 92.0281C160.374 101.76 155.599 102.613 146.059 97.0362C136.509 91.4447 131.408 90.5057 120.008 92.2557C116.354 92.8106 109.632 94.2333 108.305 94.7313C108.163 94.774 108.076 94.6317 107.946 94.1195C107.108 90.8187 103.758 88.272 99.2764 87.5037C93.9574 86.6073 87.7465 87.589 74.2261 91.4589C63.0769 94.6459 59.3243 95.6276 55.0713 96.4671C43.846 98.6866 36.6452 97.4772 33.295 92.839C32.6859 91.9854 31.881 90.3492 32.0115 90.2211C32.0442 90.1927 32.5771 89.837 33.208 89.4102C45.9453 80.8736 54.1032 69.8329 53.7443 61.6236C53.2874 51.5077 42.3993 54.0118 35.1768 65.8776C30.6736 73.2618 28.1283 83.15 29.3031 88.6561C29.3683 88.9549 29.4119 89.2537 29.4119 89.3106C29.4119 89.4671 25.8985 91.6866 23.8971 92.8106C17.2076 96.5382 7.51596 100.508 4.3398 100.807C3.88296 100.849 2.75173 101.048 1.82716 101.233C0.902594 101.433 0.0976743 101.575 0.0541681 101.575C0.0106563 101.575 -0.0219727 101.703 -0.0219727 101.859C-0.0219727 102.229 3.23032 102.286 4.55735 101.945C4.98156 101.831 5.75384 101.674 6.2542 101.589C12.0735 100.55 21.5911 96.5809 29.0312 92.0992C29.5533 91.7862 29.9992 91.5443 30.0101 91.5585C30.021 91.587 30.2059 92.0138 30.4343 92.526C33.5126 99.4122 40.8112 101.731 53.1243 99.7252C57.0401 99.085 63.6426 97.4915 70.8107 95.4285C80.1216 92.7537 83.189 91.9285 86.6697 91.1886C96.2961 89.1114 102.757 89.837 105.4 93.2801C105.922 93.963 106.499 95.1439 106.358 95.2435C106.336 95.272 105.563 95.5281 104.639 95.8411C93.2069 99.5829 86.0606 105.174 87.5507 109.187C89.4325 114.266 103.062 108.76 106.88 101.376C107.5 100.166 107.935 98.9569 108.141 97.9183C108.348 96.8228 108.076 97.022 110.045 96.5098C118.975 94.1907 127.677 93.1663 132.691 93.8634C136.574 94.4041 139.152 95.4427 145.168 98.9285C155.903 105.132 160.591 104.363 175.243 94.0484C183.118 88.5138 186.316 87.1906 190.352 87.8451C194.931 88.5707 196.508 90.6764 196.845 96.4813C197.085 100.465 197.661 102.087 199.238 103.14C202.501 105.317 210.714 103.766 231.217 97.0646C240.42 94.0626 243.911 93.2232 247.207 93.2232C249.578 93.2232 251.286 93.7211 251.286 94.3898C251.286 95.1297 249.502 96.8939 246.957 98.6866C242.987 101.475 242.225 102.827 243.705 104.463C244.934 105.8 250.709 106.341 257.029 105.715C271.104 104.307 285.245 101.006 300.266 95.6276C304.084 94.2618 305.226 93.9488 306.249 93.9346H307.032V94.3614C307.032 94.589 306.825 95.7841 306.586 97.0077C304.465 107.75 309.816 108.845 315.473 98.8289C317.246 95.6846 317.441 95.3431 317.942 94.6886C318.562 93.8776 318.779 93.8919 319.073 94.7455C319.378 95.6703 319.454 97.9183 319.214 99.7821C318.464 105.758 320.694 106.256 336.411 103.695C344.645 102.357 350.78 100.678 352.412 99.3268C352.695 99.085 352.966 98.8858 353.01 98.8858C353.14 98.8858 353.565 98.2598 353.565 98.0748C353.565 97.4203 350.399 97.7333 343.503 99.1134C333.007 101.205 326.709 102.187 323.641 102.215C320.835 102.229 320.955 102.343 321.27 99.6825C321.738 95.8837 321.129 92.6541 319.747 91.587C319.16 91.1459 319.073 91.6439 320.28 88.4C321.238 85.8248 322.51 82.0829 326.187 71.1419C327.035 68.6093 328.319 64.8817 329.026 62.8614C330.864 57.6398 330.962 57.2272 330.646 56.1317C330.233 54.7658 329.461 54.6663 326.948 55.6337C325.915 56.0321 325.458 56.1317 324.294 56.2028C321.259 56.3878 313.123 57.3837 305.781 58.4793C303.464 58.8207 299.69 59.3614 297.395 59.6744C293.207 60.2435 286.267 61.3532 286.126 61.4528C286.093 61.4813 285.528 61.5809 284.886 61.652C284.233 61.7232 283.385 61.8228 282.993 61.8797L282.286 61.9793L281.155 59.9447C280.546 58.8207 278.327 54.9508 276.249 51.3228C274.161 47.7089 271.441 42.9711 270.212 40.7943C266.035 33.4528 265.165 32.5423 263.142 33.4528ZM263.686 35.7862C263.642 36.1988 263.697 39.7841 263.795 43.7537C264.012 52.3329 263.969 63.4305 263.697 67.4711C263.599 68.8228 263.447 71.1561 263.36 72.6358C263.262 74.1154 263.164 75.524 263.131 75.7801L263.077 76.2211L262.511 76.1642C258.922 75.7232 257.573 75.339 246.369 71.5972C243.095 70.5016 239.702 69.4061 238.842 69.15C237.983 68.8939 237.254 68.6663 237.233 68.652C237.211 68.6236 238.016 67.5707 239.006 66.3045C240.006 65.0382 240.942 63.7577 241.083 63.4589C241.246 63.1175 241.409 62.9467 241.496 62.9894C241.594 63.0321 241.627 62.9894 241.583 62.8614C241.551 62.7333 241.594 62.648 241.67 62.648C241.757 62.648 246.152 56.9569 251.449 49.9996C261.413 36.8959 262.935 35.0463 263.708 35.0463C263.73 35.0463 263.719 35.3736 263.686 35.7862ZM265.318 35.8431C265.938 36.5687 266.797 38.0341 269.255 42.5443C270.593 45.0057 272.997 49.3309 274.596 52.1764C277.315 56.9854 278.795 59.6602 281.427 64.526C282.558 66.6175 283.472 68.1683 284.309 69.3634L284.82 70.1032L284.211 70.3167C283.874 70.4447 282.351 70.9996 280.839 71.5545C271.496 74.9833 264.012 76.9325 264.328 75.8512C266.177 69.6337 266.362 46.5423 264.643 35.6297C264.556 35.0748 264.708 35.1175 265.318 35.8431ZM50.0351 58.9345C50.9706 59.5606 51.2751 60.3858 51.2751 62.1927C51.2751 69.2069 44.2158 78.7537 32.947 86.9772C31.2501 88.215 31.3154 88.2719 31.3263 85.839C31.3589 74.5992 39.68 60.4854 47.3158 58.6927C48.1969 58.4793 49.5456 58.6073 50.0351 58.9345ZM327.481 59.0199C327.481 59.0626 327.111 60.1581 326.665 61.4671C323.206 71.4976 317.855 89.5382 317.855 91.1317C317.855 91.2882 317.67 91.5016 317.398 91.6866C316.81 92.085 315.919 93.2801 315.103 94.8024C312.557 99.5118 311.72 100.792 310.349 102.059C307.761 104.491 307.217 102.827 308.587 96.652C309.109 94.3045 309.088 93.337 308.468 92.3837C307.413 90.7191 306.107 90.8614 299.342 93.3654C283.113 99.3837 267.808 102.855 253.831 103.709C249.546 103.979 244.792 103.538 244.792 102.87C244.792 102.713 246.087 101.66 247.577 100.607C251.688 97.7191 253.157 95.9264 252.994 93.9915C252.743 91.089 248.643 89.9793 242.736 91.1886C239.854 91.7862 237.755 92.4264 229.053 95.2862C220.286 98.1602 215.391 99.6114 210.888 100.65C210.627 100.721 210.594 100.693 210.649 100.408C210.746 99.9528 210.409 97.2354 210.094 95.7984C208.745 89.6947 205.33 82.1114 198.466 70.0179C196.356 66.276 195.442 64.5972 195.442 64.4122C195.442 64.2841 197.302 64.4976 205.612 65.5504C224.43 67.9549 234.611 70.2882 249.013 75.5098C261.271 79.963 263.164 80.276 269.038 78.839C273.323 77.8004 282.101 74.8695 289.335 72.0667C299.581 68.0971 305.248 66.148 316.18 62.7902C321.096 61.2821 323.543 60.4569 325.752 59.5463C327.024 59.0341 327.481 58.8919 327.481 59.0199ZM311.252 60.5565C302.627 63.2171 297.199 65.1378 288.214 68.7516C285.723 69.7476 285.984 69.7333 285.723 68.965C285.604 68.6236 284.908 67.1297 284.157 65.65L282.808 62.9752L285.963 63.0179C292.348 63.1317 297.917 62.5768 307.946 60.8268C312.481 60.0301 313.112 59.9732 311.252 60.5565ZM221.471 63.5585C230.521 63.9854 235.59 63.9711 238.299 63.5158C239.234 63.3593 239.277 63.4163 238.701 64.1845C238.211 64.8675 236.689 67.2435 236.297 67.9549L236.08 68.339L234.557 67.9122C230.761 66.8309 223.636 65.2089 216.435 63.8004L214.325 63.3878L215.685 63.3736C216.424 63.3736 219.035 63.4589 221.471 63.5585ZM106.368 97.8187C106.368 99.1276 104.323 102.201 102.257 104.008C98.7108 107.095 91.869 109.471 89.7806 108.333C87.7357 107.209 94.5122 102.144 102.094 99.1134C105.368 97.8187 106.368 97.5057 106.368 97.8187Z" fill="white"/>
</g>
<path d="M64.082 72.8203H70.5859V66.9219H72.8613V82H70.5859V74.959H64.082V82H61.8066V66.9219H64.082V72.8203ZM84.7949 69.0605H78.75V72.6836H84.6191V74.8223H78.75V79.8613H84.7949V82H76.4746V66.9219H84.7949V69.0605ZM90.0586 66.9219V79.8613H94.4922V82H87.7832V66.9219H90.0586ZM105.234 69.168L103.389 70.2617C103.044 69.6628 102.715 69.2721 102.402 69.0898C102.077 68.8815 101.657 68.7773 101.143 68.7773C100.511 68.7773 99.987 68.9564 99.5703 69.3145C99.1536 69.666 98.9453 70.1087 98.9453 70.6426C98.9453 71.3783 99.4922 71.9707 100.586 72.4199L102.09 73.0352C103.314 73.5299 104.209 74.1354 104.775 74.8516C105.342 75.5612 105.625 76.4336 105.625 77.4688C105.625 78.8555 105.163 80.0013 104.238 80.9062C103.307 81.8177 102.152 82.2734 100.771 82.2734C99.4629 82.2734 98.3822 81.8861 97.5293 81.1113C96.6895 80.3366 96.1654 79.2461 95.957 77.8398L98.2617 77.332C98.3659 78.2174 98.5482 78.8294 98.8086 79.168C99.2773 79.819 99.9609 80.1445 100.859 80.1445C101.569 80.1445 102.158 79.9069 102.627 79.4316C103.096 78.9564 103.33 78.3542 103.33 77.625C103.33 77.332 103.288 77.0651 103.203 76.8242C103.125 76.5768 102.998 76.3522 102.822 76.1504C102.653 75.9421 102.432 75.75 102.158 75.5742C101.885 75.3919 101.559 75.2194 101.182 75.0566L99.7266 74.4512C97.6628 73.5788 96.6309 72.3027 96.6309 70.623C96.6309 69.4902 97.0638 68.543 97.9297 67.7812C98.7956 67.013 99.873 66.6289 101.162 66.6289C102.9 66.6289 104.258 67.4753 105.234 69.168ZM110.645 66.9219V82H108.369V66.9219H110.645ZM114.268 82V65.8965L125.264 77.4004V66.9219H127.539V82.918L116.543 71.4434V82H114.268ZM139.072 74.1484H145.303V74.6465C145.303 75.7793 145.169 76.7819 144.902 77.6543C144.642 78.4616 144.202 79.2168 143.584 79.9199C142.184 81.4954 140.404 82.2832 138.242 82.2832C136.133 82.2832 134.326 81.5215 132.822 79.998C131.318 78.4681 130.566 76.6322 130.566 74.4902C130.566 72.3027 131.331 70.4473 132.861 68.9238C134.391 67.3939 136.253 66.6289 138.447 66.6289C139.626 66.6289 140.726 66.8698 141.748 67.3516C142.725 67.8333 143.685 68.6146 144.629 69.6953L143.008 71.248C141.771 69.6009 140.264 68.7773 138.486 68.7773C136.891 68.7773 135.553 69.3275 134.473 70.4277C133.392 71.5085 132.852 72.8626 132.852 74.4902C132.852 76.1699 133.454 77.5534 134.658 78.6406C135.785 79.6497 137.005 80.1543 138.32 80.1543C139.44 80.1543 140.446 79.7767 141.338 79.0215C142.23 78.2598 142.728 77.3483 142.832 76.2871H139.072V74.1484ZM160.049 68.2207L161.68 66.5605L162.988 67.8594L161.377 69.5098C162.568 70.9941 163.164 72.6576 163.164 74.5C163.164 76.6354 162.393 78.4648 160.85 79.9883C159.307 81.5117 157.454 82.2734 155.293 82.2734C153.49 82.2734 151.826 81.6973 150.303 80.5449L148.682 82.1562L147.432 80.877L149.004 79.2559C147.949 77.8496 147.422 76.2708 147.422 74.5195C147.422 72.2669 148.219 70.3822 149.814 68.8652C151.377 67.3809 153.223 66.6387 155.352 66.6387C157.044 66.6387 158.61 67.166 160.049 68.2207ZM158.457 69.7246C157.513 69.0931 156.475 68.7773 155.342 68.7773C153.734 68.7773 152.393 69.3275 151.318 70.4277C150.251 71.5345 149.717 72.9082 149.717 74.5488C149.717 75.623 150.033 76.6712 150.664 77.6934L158.457 69.7246ZM159.766 71.0039L151.924 79.002C153.024 79.7637 154.157 80.1445 155.322 80.1445C156.859 80.1445 158.167 79.5944 159.248 78.4941C160.329 77.3939 160.869 76.0527 160.869 74.4707C160.869 73.2272 160.501 72.0716 159.766 71.0039ZM171.133 75.5742L175.801 82H173.018L168.711 75.8281H168.301V82H166.025V66.9219H168.691C170.684 66.9219 172.122 67.2962 173.008 68.0449C173.984 68.8783 174.473 69.9785 174.473 71.3457C174.473 72.4134 174.167 73.3314 173.555 74.0996C172.943 74.8678 172.135 75.3594 171.133 75.5742ZM168.301 73.8457H169.023C171.178 73.8457 172.256 73.0221 172.256 71.375C172.256 69.832 171.208 69.0605 169.111 69.0605H168.301V73.8457Z" fill="white"/>
</svg>
