<svg width="18" height="25" viewBox="0 0 18 25" fill="none" xmlns="http://www.w3.org/2000/svg">
<mask id="mask0_853_1206" style="mask-type:luminance" maskUnits="userSpaceOnUse" x="0" y="0" width="18" height="25">
<path d="M0 0.326416H18V24.3271H0V0.326416Z" fill="white"/>
</mask>
<g mask="url(#mask0_853_1206)">
<path d="M8.99389 0.326416C11.0061 0.326416 12.8678 0.992517 14.3798 2.12195C15.9316 3.27974 17.1152 4.92609 17.7177 6.84244C18.4256 9.09605 17.731 11.8235 16.4216 14.5026C14.5486 18.3332 11.4122 22.1008 9.41842 24.1474C9.18416 24.388 8.80362 24.388 8.56936 24.1474L8.56425 24.1422C6.52754 22.0504 3.36455 18.267 1.51299 14.4091C0.215875 11.7058 -0.442911 8.95001 0.334538 6.64807C0.965705 4.7832 2.15131 3.18519 3.68882 2.06416C5.18746 0.969403 7.01856 0.326416 8.99389 0.326416ZM13.676 3.11795C12.3625 2.13771 10.7442 1.55881 8.99389 1.55881C7.2743 1.55881 5.68155 2.11669 4.38341 3.06437C3.04436 4.04145 2.01219 5.43039 1.46491 7.04836C0.808169 8.99098 1.41785 11.4285 2.5871 13.8649C4.24634 17.3215 7.02163 20.7381 8.99389 22.832C10.9304 20.7728 13.679 17.3771 15.3516 13.9542C16.5341 11.5356 17.1755 9.12021 16.5771 7.21752C16.0544 5.55647 15.0253 4.12655 13.676 3.11795Z" fill="black"/>
</g>
<path d="M8.99333 3.95947C10.2843 3.95947 11.4525 4.49635 12.2995 5.36417C13.1455 6.23304 13.6693 7.43181 13.6693 8.75666C13.6693 10.0815 13.1455 11.2803 12.2995 12.1492C11.4525 13.017 10.2843 13.5539 8.99333 13.5539C7.70236 13.5539 6.53311 13.017 5.68713 12.1492C4.84114 11.2803 4.31738 10.0815 4.31738 8.75666C4.31738 7.43181 4.84114 6.23304 5.68713 5.36417C6.53311 4.49635 7.70236 3.95947 8.99333 3.95947ZM11.4505 6.23619C10.8214 5.59005 9.95287 5.19081 8.99333 5.19081C8.0338 5.19081 7.1653 5.59005 6.53618 6.23619C5.90809 6.88023 5.51936 7.77222 5.51936 8.75666C5.51936 9.74111 5.90809 10.632 6.53618 11.2771C7.1653 11.9222 8.0338 12.3215 8.99333 12.3215C9.95287 12.3215 10.8214 11.9222 11.4505 11.2771C12.0786 10.632 12.4673 9.74111 12.4673 8.75666C12.4673 7.77222 12.0786 6.88023 11.4505 6.23619Z" fill="black"/>
</svg>
