<svg width="1440" height="830" viewBox="0 0 1440 830" fill="none" xmlns="http://www.w3.org/2000/svg">
<path d="M105.305 46.3123C47.5822 34.1686 0.487522 57.9132 0 83.336L1440 75.3132V60.5176L1435.15 47.4228L1418.15 36.6429C1409.54 20.8462 1320.58 -4.77725 1261.71 0.772933C1191.02 7.43721 1193.46 27.4301 1157.87 47.4228C1129.39 63.417 1094.81 51.9892 1064.26 40.7588C1057.11 35.3286 1027.99 21.9508 968.707 11.8804C909.424 1.81004 851.702 22.7407 830.251 34.4647C809.45 45.0782 751.76 61.1958 687.407 40.7588C606.965 15.2125 641.58 22.2471 589.902 11.8804C548.56 3.58706 490.843 30.2063 462.198 45.0019C434.039 53.4085 403.084 76.8196 351.991 28.5409C300.899 -19.7379 213.372 19.4083 185.746 42.98C170.795 48.0399 163.028 58.456 105.305 46.3123Z" fill="#224097"/>
<rect y="72.583" width="1440" height="757.417" fill="url(#paint0_linear_721_2304)"/>
<defs>
<linearGradient id="paint0_linear_721_2304" x1="720" y1="72.583" x2="720" y2="830" gradientUnits="userSpaceOnUse">
<stop offset="0.19125" stop-color="#224097"/>
<stop offset="0.623844" stop-color="#A24C92"/>
<stop offset="0.776055" stop-color="#DF7284"/>
<stop offset="0.893186" stop-color="#FAAA87"/>
<stop offset="1" stop-color="#FFC22D"/>
</linearGradient>
</defs>
</svg>
