<?xml version="1.0" encoding="UTF-8"?>
<svg id="Layer_1" xmlns="http://www.w3.org/2000/svg" xmlns:xlink="http://www.w3.org/1999/xlink" version="1.1" viewBox="0 0 153.46 45.31">
  <!-- Generator: Adobe Illustrator 29.3.1, SVG Export Plug-In . SVG Version: 2.1.0 Build 151)  -->
  <defs>
    <style>
      .st0 {
        mask: url(#mask);
      }

      .st1 {
        fill-rule: evenodd;
      }

      .st1, .st2 {
        fill: #fff;
      }
    </style>
    <mask id="mask" x="0" y="10.76" width="153.65" height="35.37" maskUnits="userSpaceOnUse">
      <g id="mask0_501_324">
        <path class="st2" d="M0,10.76h153.64v35.37H0V10.76Z"/>
      </g>
    </mask>
  </defs>
  <path class="st2" d="M19.19,8.2l6.37-6.64h3.3l-7.4,7.53,7.44,9.11h-3.31l-5.89-7.4-.51.52v6.89h-2.47V1.56h2.47v6.64ZM33.12,7.7v6.02c0,1.74.67,2.61,2.02,2.61s2.02-.87,2.02-2.61v-6.02h2.38v6.08c0,.84-.1,1.57-.31,2.18-.2.55-.54,1.04-1.03,1.48-.81.71-1.83,1.07-3.07,1.07s-2.26-.36-3.06-1.07c-.49-.44-.84-.93-1.05-1.48-.2-.49-.3-1.21-.3-2.18v-6.08h2.38ZM45.6,0v18.2h-2.38V0h2.38ZM51.73,9.97v8.23h-2.38v-8.23h-1.02v-2.26h1.02v-3.85h2.38v3.85h1.85v2.26h-1.85ZM58.24,7.7v6.02c0,1.74.67,2.61,2.02,2.61s2.02-.87,2.02-2.61v-6.02h2.38v6.08c0,.84-.1,1.57-.31,2.18-.2.55-.54,1.04-1.03,1.48-.81.71-1.83,1.07-3.07,1.07s-2.26-.36-3.06-1.07c-.49-.44-.84-.93-1.05-1.48-.2-.49-.3-1.21-.3-2.18v-6.08h2.38ZM68.33,7.7h2.38v.94c.44-.47.83-.79,1.17-.96.35-.18.76-.27,1.23-.27.63,0,1.29.21,1.97.62l-1.09,2.22c-.45-.33-.89-.5-1.32-.5-1.3,0-1.95,1-1.95,3v5.44h-2.38V7.7ZM77.44,7.7h2.39v.97c.83-.84,1.77-1.26,2.82-1.26,1.2,0,2.14.38,2.81,1.15.58.65.87,1.72.87,3.2v6.43h-2.39v-5.86c0-1.03-.14-1.75-.42-2.14-.28-.4-.78-.6-1.5-.6-.79,0-1.35.27-1.68.8-.33.52-.49,1.44-.49,2.75v5.06h-2.39V7.7ZM97.61,7.7h2.39v10.5h-2.39v-1.1c-.98.93-2.04,1.4-3.17,1.4-1.43,0-2.61-.52-3.54-1.57-.93-1.07-1.39-2.41-1.39-4.01s.46-2.88,1.39-3.93c.93-1.05,2.08-1.57,3.48-1.57,1.2,0,2.28.5,3.23,1.51v-1.22ZM91.95,12.92c0,1.01.26,1.82.79,2.46.54.64,1.23.96,2.06.96.88,0,1.6-.31,2.14-.93.54-.64.82-1.45.82-2.44s-.27-1.8-.82-2.44c-.54-.62-1.25-.94-2.12-.94-.82,0-1.5.32-2.06.95-.54.64-.82,1.43-.82,2.37ZM106.12,9.97v8.23h-2.38v-8.23h-1.02v-2.26h1.02v-3.85h2.38v3.85h1.85v2.26h-1.85Z"/>
  <g class="st0">
    <path class="st1" d="M114.22,11.01c-.85.4-2.03,1.86-8.6,10.76l-1.45,1.97h-.33c-.18-.02-.73-.06-1.22-.12-1.42-.16-3.08-.26-6.62-.41-1.89-.08-6.18-.08-7.75,0-1.18.06-1.34.06-2.22-.06-1.75-.24-2.24-.12-2.51.61-.26.72,0,1.43,1.43,3.99,3.06,5.44,4.53,8.61,5.8,12.49l.18.57-.6.11c-1.6.29-2.9.31-3.39.05-.53-.28-.63-.56-.72-2.03-.2-3.18-1-4.43-3.15-4.94-2.02-.48-3.66.15-7.46,2.88-6,4.3-8.07,4.67-12.21,2.21-4.14-2.47-6.36-2.88-11.31-2.11-1.59.24-4.5.87-5.08,1.09-.06.02-.1-.04-.16-.27-.36-1.46-1.82-2.58-3.76-2.92-2.31-.4-5,.04-10.87,1.75-4.84,1.41-6.47,1.84-8.31,2.21-4.87.98-8,.45-9.45-1.6-.26-.38-.61-1.1-.56-1.16.01-.01.25-.17.52-.36,5.53-3.77,9.07-8.64,8.91-12.26-.2-4.46-4.92-3.36-8.06,1.88-1.95,3.26-3.06,7.62-2.55,10.05.03.13.05.26.05.29,0,.07-1.52,1.05-2.39,1.54-2.9,1.65-7.11,3.4-8.49,3.53-.2.02-.69.11-1.09.19-.4.09-.75.15-.77.15s-.03.06-.03.13c0,.16,1.41.19,1.99.04.18-.05.52-.12.74-.16,2.53-.46,6.66-2.21,9.89-4.19.23-.14.42-.24.42-.24,0,.01.08.2.18.43,1.34,3.04,4.5,4.06,9.85,3.18,1.7-.28,4.57-.99,7.68-1.9,4.04-1.18,5.37-1.54,6.88-1.87,4.18-.92,6.98-.6,8.13.92.23.3.48.82.42.87,0,.01-.35.13-.75.26-4.96,1.65-8.06,4.12-7.42,5.89.82,2.24,6.73-.19,8.39-3.45.27-.53.46-1.07.55-1.53.09-.48-.03-.4.83-.62,3.88-1.02,7.65-1.48,9.83-1.17,1.69.24,2.8.7,5.42,2.24,4.66,2.74,6.69,2.4,13.05-2.15,3.42-2.44,4.81-3.03,6.56-2.74,1.99.32,2.67,1.25,2.82,3.81.1,1.76.35,2.47,1.04,2.94,1.42.96,4.98.28,13.88-2.68,3.99-1.32,5.51-1.7,6.94-1.7,1.03,0,1.77.22,1.77.51,0,.33-.77,1.11-1.88,1.9-1.72,1.23-2.05,1.83-1.41,2.55.53.59,3.04.83,5.78.55,6.11-.62,12.25-2.08,18.77-4.45,1.66-.6,2.15-.74,2.6-.75h.34v.19c0,.1-.09.63-.19,1.17-.92,4.74,1.4,5.22,3.86.8.77-1.39.85-1.54,1.07-1.83.27-.36.36-.35.49.03.13.41.17,1.4.06,2.22-.33,2.64.64,2.86,7.46,1.73,3.57-.59,6.24-1.33,6.94-1.93.12-.11.24-.19.26-.19.06,0,.24-.28.24-.36,0-.29-1.37-.15-4.37.46-4.56.92-7.29,1.36-8.62,1.37-1.22,0-1.17.06-1.03-1.12.2-1.68-.06-3.1-.66-3.57-.25-.19-.29.03.23-1.41.42-1.14.97-2.79,2.56-7.62.37-1.12.93-2.76,1.23-3.65.8-2.3.84-2.49.7-2.97-.18-.6-.51-.65-1.6-.22-.45.18-.65.22-1.15.25-1.32.08-4.85.52-8.03,1-1.01.15-2.64.39-3.64.53-1.82.25-4.83.74-4.89.78-.01.01-.26.06-.54.09-.28.03-.65.08-.82.1l-.31.04-.49-.9c-.26-.5-1.23-2.2-2.13-3.81-.91-1.59-2.09-3.69-2.62-4.65-1.81-3.24-2.19-3.64-3.07-3.24ZM114.45,12.04c-.02.18,0,1.76.05,3.52.09,3.79.08,8.68-.04,10.47-.04.6-.11,1.63-.15,2.28-.04.65-.09,1.27-.1,1.39l-.02.19-.25-.03c-1.56-.19-2.14-.36-7.01-2.02-1.42-.48-2.89-.97-3.27-1.08-.37-.11-.69-.21-.7-.22,0-.01.34-.48.77-1.04.43-.56.84-1.12.9-1.26.07-.15.14-.23.18-.21.04.02.06,0,.04-.06-.01-.06,0-.09.04-.09.04,0,1.95-2.51,4.24-5.58,4.32-5.78,4.99-6.6,5.32-6.6,0,0,0,.14,0,.33ZM115.16,12.07c.27.32.64.97,1.71,2.96.58,1.09,1.62,3,2.32,4.25,1.18,2.12,1.82,3.3,2.96,5.45.49.92.89,1.61,1.25,2.14l.22.33-.26.09c-.15.06-.81.3-1.46.55-4.05,1.51-7.3,2.37-7.17,1.9.8-2.74.88-12.94.14-17.75-.04-.24.03-.23.29.09ZM21.73,22.26c.41.28.54.64.54,1.44,0,3.1-3.06,7.31-7.95,10.94-.74.55-.71.57-.7-.5.01-4.96,3.63-11.19,6.94-11.98.38-.09.97-.04,1.18.11ZM142.14,22.3s-.16.5-.35,1.08c-1.5,4.43-3.82,12.39-3.82,13.09,0,.07-.08.16-.2.24-.26.18-.64.7-1,1.38-1.1,2.08-1.47,2.64-2.06,3.2-1.12,1.07-1.36.34-.76-2.39.23-1.04.22-1.46-.05-1.88-.46-.73-1.02-.67-3.96.43-7.04,2.66-13.69,4.19-19.75,4.57-1.86.12-3.92-.08-3.92-.37,0-.07.56-.53,1.21-1,1.78-1.27,2.42-2.07,2.35-2.92-.11-1.28-1.89-1.77-4.45-1.24-1.25.26-2.16.55-5.94,1.81-3.8,1.27-5.93,1.91-7.88,2.37-.11.03-.13.02-.1-.11.04-.2-.1-1.4-.24-2.03-.59-2.69-2.07-6.04-5.05-11.38-.92-1.65-1.31-2.39-1.31-2.47,0-.06.81.04,4.41.5,8.17,1.06,12.59,2.09,18.84,4.4,5.32,1.97,6.14,2.1,8.69,1.47,1.86-.46,5.67-1.75,8.81-2.99,4.45-1.75,6.91-2.61,11.65-4.09,2.13-.67,3.2-1.03,4.15-1.43.55-.23.75-.29.75-.23ZM135.1,22.98c-3.74,1.17-6.1,2.02-10,3.62-1.08.44-.97.43-1.08.09-.05-.15-.35-.81-.68-1.46l-.59-1.18,1.37.02c2.77.05,5.19-.19,9.54-.97,1.97-.35,2.24-.38,1.43-.12ZM96.13,24.3c3.93.19,6.13.18,7.3-.02.41-.07.42-.04.17.3-.21.3-.87,1.35-1.04,1.66l-.09.17-.66-.19c-1.65-.48-4.74-1.19-7.87-1.81l-.92-.18h.59c.32,0,1.45.03,2.51.08ZM46.17,39.42c0,.58-.89,1.93-1.78,2.73-1.54,1.36-4.51,2.41-5.41,1.91-.89-.5,2.05-2.73,5.34-4.07,1.42-.57,1.85-.71,1.85-.57Z"/>
  </g>
  <path class="st2" d="M27.82,27.39h2.82v-2.6h.99v6.65h-.99v-3.11h-2.82v3.11h-.99v-6.65h.99v2.6ZM36.81,25.73h-2.62v1.6h2.55v.94h-2.55v2.22h2.62v.94h-3.61v-6.65h3.61v.94ZM39.1,24.79v5.71h1.92v.94h-2.91v-6.65h.99ZM45.68,25.78l-.8.48c-.15-.26-.29-.44-.43-.52-.14-.09-.32-.14-.55-.14-.27,0-.5.08-.68.24-.18.16-.27.35-.27.59,0,.32.24.59.71.78l.65.27c.53.22.92.49,1.17.8.25.31.37.7.37,1.16,0,.61-.2,1.12-.6,1.52-.4.4-.91.6-1.5.6-.57,0-1.04-.17-1.41-.51-.36-.34-.59-.82-.68-1.44l1-.22c.05.39.12.66.24.81.2.29.5.43.89.43.31,0,.56-.1.77-.31.2-.21.31-.48.31-.8,0-.13-.02-.25-.06-.35-.03-.11-.09-.21-.17-.3-.07-.09-.17-.18-.29-.25-.12-.08-.26-.16-.42-.23l-.63-.27c-.9-.39-1.34-.95-1.34-1.69,0-.5.19-.92.56-1.25.38-.34.84-.51,1.4-.51.75,0,1.34.37,1.77,1.12ZM48.03,24.79v6.65h-.99v-6.65h.99ZM49.6,31.44v-7.11l4.77,5.08v-4.62h.99v7.06l-4.77-5.06v4.66h-.99ZM60.37,27.97h2.7v.22c0,.5-.06.94-.17,1.33-.11.36-.3.69-.57,1-.61.7-1.38,1.04-2.32,1.04s-1.7-.34-2.35-1.01c-.65-.68-.98-1.49-.98-2.43s.33-1.78,1-2.46c.66-.68,1.47-1.01,2.42-1.01.51,0,.99.11,1.43.32.42.21.84.56,1.25,1.03l-.7.69c-.54-.73-1.19-1.09-1.96-1.09-.69,0-1.27.24-1.74.73-.47.48-.7,1.07-.7,1.79s.26,1.35.78,1.83c.49.45,1.02.67,1.59.67.49,0,.92-.17,1.31-.5.39-.34.6-.74.65-1.21h-1.63v-.94ZM69.47,25.36l.71-.73.57.57-.7.73c.52.66.78,1.39.78,2.2,0,.94-.33,1.75-1,2.42-.67.67-1.47,1.01-2.41,1.01-.78,0-1.5-.25-2.17-.76l-.7.71-.54-.56.68-.72c-.46-.62-.69-1.32-.69-2.09,0-.99.35-1.83,1.04-2.5.68-.66,1.48-.98,2.4-.98.73,0,1.41.23,2.04.7ZM68.78,26.02c-.41-.28-.86-.42-1.35-.42-.7,0-1.28.24-1.75.73-.46.49-.69,1.09-.69,1.82,0,.47.14.94.41,1.39l3.38-3.52ZM69.35,26.59l-3.4,3.53c.48.34.97.5,1.47.5.67,0,1.23-.24,1.7-.73.47-.49.7-1.08.7-1.78,0-.55-.16-1.06-.48-1.53ZM74.28,28.6l2.03,2.84h-1.21l-1.87-2.72h-.18v2.72h-.99v-6.65h1.16c.86,0,1.49.17,1.87.5.42.37.64.85.64,1.46,0,.47-.13.88-.4,1.22-.27.34-.62.56-1.05.65ZM73.05,27.84h.31c.94,0,1.4-.36,1.4-1.09,0-.68-.45-1.02-1.36-1.02h-.35v2.11Z"/>
</svg>