<svg width="1440" height="1225" viewBox="0 0 1440 1225" fill="none" xmlns="http://www.w3.org/2000/svg">
<path d="M105.305 68.9105C47.5822 50.8412 0.487522 86.172 0 124L1440 112.062V90.0473L1435.15 70.5629L1418.15 54.5228C1409.54 31.0181 1320.58 -7.10833 1261.71 1.15009C1191.02 11.0662 1193.46 40.8147 1157.87 70.5629C1129.39 94.3615 1094.81 77.3575 1064.26 60.6471C1057.11 52.5673 1027.99 32.6617 968.707 17.6775C909.424 2.69325 851.702 33.837 830.251 51.2819C809.45 67.0742 751.76 91.0564 687.407 60.6471C606.965 22.6355 641.58 33.1026 589.902 17.6775C548.56 5.33738 490.843 44.9455 462.198 66.9606C434.039 79.4692 403.084 114.304 351.991 42.4674C300.899 -29.369 213.372 28.8786 185.746 63.9521C170.795 71.481 163.028 86.9797 105.305 68.9105Z" fill="#E7EDFF"/>
<rect y="98" width="1440" height="1127" fill="#E7EDFF"/>
</svg>
