<svg width="1440" height="934" viewBox="0 0 1440 934" fill="none" xmlns="http://www.w3.org/2000/svg">
<path d="M105.305 52.5407C47.5822 38.7638 0.487522 65.7018 0 94.5437L1440 85.4419V68.6565L1435.15 53.8006L1418.15 41.5709C1409.54 23.6497 1320.58 -5.41973 1261.71 0.876882C1191.02 8.43742 1193.46 31.1191 1157.87 53.8006C1129.39 71.9458 1094.81 58.9811 1064.26 46.2403C1057.11 40.0799 1027.99 24.9029 968.707 13.4782C909.424 2.05347 851.702 25.799 830.251 39.0998C809.45 51.1406 751.76 69.4258 687.407 46.2403C606.965 17.2584 641.58 25.2391 589.902 13.4782C548.56 4.06948 490.843 34.2686 462.198 51.0541C434.039 60.5912 403.084 87.1509 351.991 32.3793C300.899 -22.3924 213.372 22.0184 185.746 48.7602C170.795 54.5006 163.028 66.3176 105.305 52.5407Z" fill="#E7EDFF"/>
<rect y="74.72" width="1440" height="859.28" fill="#E7EDFF"/>
</svg>
