<svg width="1440" height="1212" viewBox="0 0 1440 1212" fill="none" xmlns="http://www.w3.org/2000/svg">
<rect y="126.038" width="1440" height="1085.96" fill="#FFEBF6"/>
<path d="M105.305 87.7305C47.5822 64.7264 0.487522 109.706 0 157.866L1440 142.668V114.64L1435.14 89.8343L1418.15 69.4135C1409.54 39.4894 1320.58 -9.04968 1261.71 1.46418C1191.02 14.0885 1193.46 51.9615 1157.87 89.8343C1129.39 120.132 1094.81 98.4845 1064.26 77.2103C1057.11 66.9239 1027.99 41.5819 968.707 22.5054C909.424 3.4288 851.702 43.0782 830.251 65.2874C809.45 85.3927 751.76 115.925 687.407 77.2103C606.965 28.8174 641.58 42.1432 589.902 22.5054C548.56 6.79506 490.843 57.2205 462.198 85.2482C434.039 101.173 403.084 145.521 351.991 54.0657C300.899 -37.3899 213.372 36.7656 185.746 81.4181C170.795 91.0031 163.028 110.735 105.305 87.7305Z" fill="#FFEBF6"/>
</svg>
