<svg width="1440" height="878" viewBox="0 0 1440 878" fill="none" xmlns="http://www.w3.org/2000/svg">
<rect y="115.281" width="1440" height="762.719" fill="#F5B886"/>
<path d="M105.305 80.2432C47.5822 59.2023 0.487522 100.344 0 144.393L1440 130.492V104.856L1435.14 82.1674L1418.15 63.4895C1409.54 36.1192 1320.58 -8.27734 1261.71 1.33922C1191.02 12.8861 1193.46 47.5269 1157.87 82.1674C1129.39 109.88 1094.81 90.0794 1064.26 70.6209C1057.11 61.2123 1027.99 38.0331 968.707 20.5847C909.424 3.13617 851.702 39.4017 830.251 59.7155C809.45 78.1049 751.76 106.031 687.407 70.6209C606.965 26.358 641.58 38.5465 589.902 20.5847C548.56 6.21514 490.843 52.337 462.198 77.9727C434.039 92.5384 403.084 133.102 351.991 49.4515C300.899 -34.1989 213.372 33.6278 185.746 74.4695C170.795 83.2365 163.028 101.284 105.305 80.2432Z" fill="#F5B886"/>
</svg>
