<?xml version="1.0" encoding="UTF-8"?>
<svg id="Layer_1" data-name="Layer 1" xmlns="http://www.w3.org/2000/svg" xmlns:xlink="http://www.w3.org/1999/xlink" viewBox="0 0 337.04 416.63">
  <defs>
    <style>
      .cls-1 {
        fill: none;
      }

      .cls-2 {
        fill: #060606;
      }

      .cls-3 {
        fill: #ffebf6;
      }

      .cls-4 {
        fill: #fea03d;
      }

      .cls-5 {
        clip-path: url(#clippath);
      }
    </style>
    <clipPath id="clippath">
      <rect class="cls-1" x=".45" width="336.59" height="416.63" rx="10.6" ry="10.6"/>
    </clipPath>
  </defs>
  <g class="cls-5">
    <g>
      <rect class="cls-2" x=".45" width="336.59" height="416.63" rx="20" ry="20"/>
      <path class="cls-3" d="M.45,10.6C.45,4.75,5.2,0,11.06,0h351.96c5.86,0,10.6,4.75,10.6,10.6v464.86c0,5.86-4.75,10.6-10.6,10.6H11.06c-5.85,0-10.6-4.75-10.6-10.6V10.6Z"/>
      <path class="cls-4" d="M6.26,14.43C11.3-8.88,1.45-27.9-9.09-28.09l3.33,581.48H.37s4.19-.52,5.43-1.96c1.24-1.44,4.47-6.86,4.47-6.86,1.12-2.4,17.17-39.4,14.87-63.17-2.76-28.54-11.05-27.56-19.34-41.93-6.63-11.5-1.89-25.46,2.76-37.8,2.25-2.89,7.8-14.65,11.97-38.59,4.17-23.94-4.5-47.25-9.36-55.91-4.4-8.4-11.08-31.7-2.61-57.68,10.59-32.48,10.91-30.83,11.97-39.37,2.12-17.04-7.6-40-13.73-51.57-3.49-11.37-13.19-23.87,6.82-44.5,20.02-20.63-4.75-65.38-5.99-67.13-2.1-6.04-6.42-9.17-1.38-32.48Z"/>
    </g>
  </g>
</svg>