<?xml version="1.0" encoding="UTF-8"?>
<svg id="Layer_1" data-name="Layer 1" xmlns="http://www.w3.org/2000/svg" xmlns:xlink="http://www.w3.org/1999/xlink" viewBox="0 0 214.51 55.83">
  <defs>
    <style>
      .cls-1 {
        mask: url(#mask);
      }

      .cls-2 {
        fill-rule: evenodd;
      }

      .cls-3 {
        fill: #fff;
      }
    </style>
    <mask id="mask" x=".11" y="8.63" width="211.01" height="47.52" maskUnits="userSpaceOnUse">
      <g id="mask0_936_1657" data-name="mask0 936 1657">
        <path class="cls-3" d="M.13,28.63C.13,17.58,9.08,8.63,20.13,8.63h171c11.05,0,20,8.95,20,20v7.52c0,11.05-8.95,20-20,20H20.13C9.08,56.15.13,47.2.13,36.15v-7.52Z"/>
      </g>
    </mask>
  </defs>
  <path d="M37.23,11.3l7.34-7.52h3.8l-8.52,8.53,8.57,10.31h-3.81l-6.79-8.39-.59.59v7.8h-2.84V3.78h2.84v7.52ZM53.27,10.74v6.82c0,1.97.78,2.95,2.33,2.95s2.33-.98,2.33-2.95v-6.82h2.75v6.88c0,.95-.12,1.77-.35,2.47-.23.62-.62,1.18-1.18,1.67-.93.81-2.11,1.21-3.54,1.21s-2.6-.4-3.53-1.21c-.57-.5-.97-1.05-1.21-1.67-.23-.55-.34-1.38-.34-2.47v-6.88h2.75ZM67.65,2.01v20.62h-2.75V2.01h2.75ZM74.71,13.3v9.33h-2.75v-9.33h-1.17v-2.56h1.17v-4.36h2.75v4.36h2.14v2.56h-2.14ZM82.21,10.74v6.82c0,1.97.78,2.95,2.33,2.95s2.33-.98,2.33-2.95v-6.82h2.75v6.88c0,.95-.12,1.77-.35,2.47-.23.62-.62,1.18-1.18,1.67-.93.81-2.11,1.21-3.54,1.21s-2.6-.4-3.53-1.21c-.57-.5-.97-1.05-1.21-1.67-.23-.55-.34-1.38-.34-2.47v-6.88h2.75ZM93.83,10.74h2.75v1.06c.5-.53.95-.89,1.34-1.09.4-.2.87-.31,1.42-.31.72,0,1.48.24,2.27.71l-1.26,2.51c-.52-.37-1.03-.56-1.53-.56-1.5,0-2.25,1.13-2.25,3.39v6.16h-2.75v-11.89ZM104.33,10.74h2.76v1.1c.96-.95,2.04-1.43,3.25-1.43,1.38,0,2.46.44,3.24,1.31.67.74,1,1.95,1,3.63v7.29h-2.76v-6.64c0-1.17-.16-1.98-.49-2.43-.32-.46-.89-.68-1.73-.68-.91,0-1.56.3-1.94.9-.38.59-.56,1.63-.56,3.11v5.74h-2.76v-11.89ZM127.56,10.74h2.76v11.89h-2.76v-1.25c-1.13,1.06-2.35,1.59-3.65,1.59-1.64,0-3-.59-4.08-1.78-1.07-1.21-1.6-2.73-1.6-4.54s.53-3.27,1.6-4.46c1.07-1.19,2.4-1.78,4-1.78,1.38,0,2.62.57,3.72,1.71v-1.38ZM121.04,16.65c0,1.14.31,2.07.92,2.78.63.72,1.42,1.09,2.37,1.09,1.02,0,1.84-.35,2.47-1.05.63-.72.94-1.64.94-2.76s-.31-2.03-.94-2.76c-.63-.71-1.44-1.06-2.44-1.06-.94,0-1.73.36-2.37,1.07-.63.72-.94,1.62-.94,2.69ZM137.37,13.3v9.33h-2.75v-9.33h-1.17v-2.56h1.17v-4.36h2.75v4.36h2.14v2.56h-2.14Z"/>
  <g class="cls-1">
    <path class="cls-2" d="M156.97,8.98c-1.17.53-2.78,2.5-11.81,14.46l-1.72,2.29c-.17.23-.44.36-.73.35h0c-.25,0-1.01-.07-1.68-.14-1.94-.21-4.23-.35-9.1-.56-2.6-.11-8.49-.11-10.65,0-1.61.08-1.83.08-3.05-.08-2.4-.32-3.07-.16-3.44.82-.36.96-.01,1.92,1.96,5.36,4.2,7.32,6.22,11.57,7.97,16.78h0c.13.4-.12.82-.54.9h-.03c-2.19.39-3.99.42-4.65.07-.73-.37-.87-.75-.99-2.73-.28-4.28-1.37-5.95-4.32-6.64-2.78-.65-5.03.2-10.25,3.86-8.23,5.77-11.08,6.28-16.77,2.97-5.69-3.32-8.73-3.87-15.53-2.84-2.18.33-6.19,1.17-6.98,1.47-.08.03-.14-.06-.21-.36-.5-1.96-2.5-3.47-5.17-3.92-3.17-.53-6.87.05-14.93,2.35-6.65,1.89-8.88,2.47-11.42,2.97-6.69,1.32-10.98.6-12.98-2.15-.36-.51-.84-1.48-.76-1.55.02-.02.34-.23.71-.48,7.59-5.06,12.45-11.61,12.24-16.48-.27-6-6.76-4.51-11.07,2.52-2.68,4.38-4.2,10.24-3.5,13.51.04.18.06.35.06.39,0,.09-2.09,1.41-3.29,2.08-3.99,2.21-9.76,4.57-11.66,4.74-.27.03-.95.14-1.5.25-.55.12-1.03.2-1.06.2s-.05.08-.05.17c0,.22,1.94.25,2.73.05.25-.07.71-.16,1.01-.21,3.47-.62,9.14-2.97,13.58-5.63.01,0,.02-.01.03-.02.36-.21.63-.11.8.27h0c1.83,4.08,6.19,5.46,13.52,4.27,2.33-.38,6.27-1.32,10.54-2.55,5.55-1.59,7.38-2.08,9.45-2.51,5.74-1.23,9.59-.8,11.16,1.24.04.06.09.12.14.19.4.6.09,1.1-.59,1.33h0c-6.81,2.22-11.07,5.54-10.19,7.91,1.12,3.01,9.25-.25,11.52-4.63.37-.72.63-1.43.75-2.05.12-.65-.04-.53,1.13-.84,5.32-1.38,10.51-1.98,13.5-1.57,2.31.32,3.85.94,7.44,3,6.4,3.68,9.19,3.22,17.93-2.89,4.69-3.28,6.6-4.07,9.01-3.68,2.73.43,3.67,1.68,3.87,5.12.14,2.36.49,3.32,1.43,3.95,1.94,1.29,6.84.37,19.06-3.6,5.49-1.78,7.57-2.28,9.53-2.28,1.41,0,2.43.3,2.43.69,0,.44-1.06,1.49-2.58,2.55-2.37,1.65-2.82,2.46-1.94,3.43.73.79,4.18,1.11,7.94.74,8.39-.84,16.82-2.79,25.77-5.98,2.28-.81,2.96-1,3.57-1h.21c.14,0,.25.11.25.25h0c0,.14-.12.84-.27,1.57-1.26,6.37,1.93,7.02,5.3,1.08,1.06-1.86,1.17-2.07,1.47-2.46.37-.48.5-.47.67.03.18.55.23,1.88.09,2.99-.45,3.54.88,3.84,10.25,2.32,4.91-.79,8.56-1.79,9.54-2.59.17-.14.33-.26.36-.26.08,0,.33-.37.33-.48,0-.39-1.89-.2-6,.62-6.26,1.24-10.01,1.82-11.84,1.84-1.67,0-1.6.08-1.41-1.5.28-2.25-.08-4.17-.91-4.8-.35-.26-.4.03.32-1.89.57-1.53,1.33-3.75,3.52-10.24.51-1.5,1.27-3.71,1.69-4.91,1.09-3.1,1.15-3.34.97-3.99-.25-.81-.71-.87-2.21-.3-.62.24-.89.3-1.58.34-1.81.11-6.66.7-11.03,1.35-1.38.2-3.63.52-5,.71-2.5.34-6.63,1-6.72,1.05-.02.02-.36.08-.74.12-.39.04-.89.1-1.13.14h0c-.25.04-.5-.09-.63-.31l-.47-.84c-.36-.67-1.68-2.96-2.92-5.11-1.24-2.14-2.87-4.95-3.6-6.24-2.49-4.35-3.01-4.89-4.21-4.35ZM157.29,10.36c-.03.24,0,2.37.06,4.73.13,5.09.1,11.67-.06,14.07-.06.8-.15,2.19-.2,3.06-.06.88-.12,1.71-.14,1.86h0c-.02.15-.15.25-.29.24h-.08c-2.14-.27-2.94-.5-9.62-2.72-1.95-.65-3.97-1.3-4.49-1.45h0c-.64-.19-.77-.58-.36-1.1.14-.18.29-.38.46-.59.6-.75,1.15-1.51,1.24-1.69.1-.2.19-.3.25-.28.06.03.08,0,.05-.08-.02-.08,0-.13.05-.13.05,0,2.67-3.38,5.83-7.5,5.94-7.77,6.85-8.87,7.31-8.87.01,0,0,.19-.01.44ZM158.27,10.39c.37.43.88,1.3,2.35,3.97.8,1.46,2.23,4.02,3.18,5.71,1.62,2.85,2.5,4.44,4.07,7.32.67,1.24,1.22,2.16,1.72,2.87l.08.12c.11.16.04.38-.14.44h0c-.2.08-1.11.4-2.01.73-5.57,2.03-10.03,3.19-9.84,2.55,1.1-3.69,1.21-17.38.19-23.85-.05-.33.04-.3.4.13ZM29.95,24.09c.56.37.74.86.74,1.93,0,4.16-4.21,9.82-10.92,14.7-1.01.73-.97.77-.97-.67.02-6.67,4.98-15.04,9.53-16.1.53-.13,1.33-.05,1.62.14ZM195.32,24.14s-.22.68-.49,1.45c-2.06,5.95-5.25,16.65-5.25,17.59,0,.09-.11.22-.27.33-.35.24-.88.95-1.37,1.85-1.52,2.79-2.02,3.55-2.83,4.3-1.54,1.44-1.87.46-1.05-3.21.31-1.39.3-1.97-.07-2.53-.63-.99-1.41-.9-5.44.58-9.67,3.57-18.8,5.63-27.13,6.13-2.55.16-5.39-.1-5.39-.5,0-.09.77-.72,1.66-1.34,2.45-1.71,3.33-2.78,3.23-3.92-.15-1.72-2.59-2.38-6.11-1.66-1.72.35-2.97.73-8.16,2.43-5.23,1.7-8.14,2.57-10.83,3.18-.15.04-.17.03-.14-.14.06-.27-.14-1.88-.33-2.73-.8-3.62-2.84-8.12-6.93-15.29-1.26-2.22-1.8-3.21-1.8-3.32,0-.08,1.11.05,6.06.67,11.22,1.43,17.28,2.81,25.87,5.91,7.31,2.64,8.43,2.83,11.94,1.97,2.55-.62,7.79-2.35,12.1-4.02,6.11-2.35,9.49-3.51,16-5.5,2.93-.89,4.39-1.38,5.71-1.92.76-.3,1.03-.39,1.03-.31ZM185.64,25.05c-5.14,1.58-8.38,2.72-13.73,4.86-1.49.59-1.33.58-1.49.13-.07-.2-.49-1.09-.93-1.97h0c-.37-.72.16-1.57.97-1.56h.1c3.81.07,7.12-.26,13.1-1.3,2.7-.47,3.08-.51,1.97-.16ZM132.13,26.83c5.39.25,8.42.24,10.03-.03.56-.09.58-.06.24.4-.29.4-1.2,1.81-1.43,2.24h0c-.08.13-.23.2-.38.16l-.66-.18c-2.26-.64-6.51-1.6-10.8-2.44l-.46-.09c-.1-.02-.08-.16.01-.16h0c.44,0,2,.05,3.45.11ZM63.52,47.15c0,.78-1.22,2.6-2.45,3.67-2.11,1.83-6.19,3.24-7.44,2.57-1.22-.67,2.82-3.67,7.34-5.47,1.95-.77,2.55-.95,2.55-.77Z"/>
  </g>
  <path d="M44.57,30.12h3.9v-3.54h1.37v9.05h-1.37v-4.22h-3.9v4.22h-1.37v-9.05h1.37v3.54ZM57,27.87h-3.63v2.17h3.52v1.28h-3.52v3.02h3.63v1.28h-4.99v-9.05h4.99v1.28ZM60.16,26.58v7.76h2.66v1.28h-4.03v-9.05h1.37ZM69.27,27.93l-1.11.66c-.21-.36-.4-.59-.59-.7-.2-.12-.45-.19-.76-.19-.38,0-.69.11-.94.32-.25.21-.38.48-.38.8,0,.44.33.8.98,1.07l.9.37c.73.3,1.27.66,1.61,1.09.34.43.51.95.51,1.57,0,.83-.28,1.52-.83,2.06-.56.55-1.25.82-2.08.82-.79,0-1.43-.23-1.95-.7-.5-.46-.82-1.12-.94-1.96l1.38-.3c.06.53.17.9.33,1.1.28.39.69.59,1.23.59.43,0,.78-.14,1.06-.43.28-.29.42-.65.42-1.08,0-.18-.03-.34-.08-.48-.05-.15-.12-.28-.23-.4-.1-.12-.23-.24-.4-.35-.16-.11-.36-.21-.59-.31l-.87-.36c-1.24-.52-1.86-1.29-1.86-2.3,0-.68.26-1.25.78-1.71.52-.46,1.17-.69,1.94-.69,1.04,0,1.86.51,2.44,1.52ZM72.51,26.58v9.05h-1.37v-9.05h1.37ZM74.69,35.63v-9.66l6.6,6.9v-6.29h1.37v9.6l-6.6-6.88v6.33h-1.37ZM89.57,30.92h3.74v.3c0,.68-.08,1.28-.24,1.8-.16.48-.42.94-.79,1.36-.84.95-1.91,1.42-3.21,1.42s-2.35-.46-3.25-1.37c-.9-.92-1.35-2.02-1.35-3.3s.46-2.43,1.38-3.34c.92-.92,2.04-1.38,3.35-1.38.71,0,1.37.14,1.98.43.59.29,1.16.76,1.73,1.41l-.97.93c-.74-.99-1.65-1.48-2.71-1.48-.96,0-1.76.33-2.41.99-.65.65-.97,1.46-.97,2.44s.36,1.84,1.08,2.49c.68.61,1.41.91,2.2.91.67,0,1.28-.23,1.81-.68.54-.46.83-1,.9-1.64h-2.26v-1.28ZM102.15,27.36l.98-1,.78.78-.97.99c.72.89,1.07,1.89,1.07,2.99,0,1.28-.46,2.38-1.39,3.29-.93.91-2.04,1.37-3.33,1.37-1.08,0-2.08-.35-2.99-1.04l-.97.97-.75-.77.94-.97c-.63-.84-.95-1.79-.95-2.84,0-1.35.48-2.48,1.44-3.39.94-.89,2.04-1.34,3.32-1.34,1.02,0,1.96.32,2.82.95ZM101.2,28.26c-.57-.38-1.19-.57-1.87-.57-.96,0-1.77.33-2.41.99-.64.66-.96,1.49-.96,2.47,0,.64.19,1.27.57,1.89l4.68-4.78ZM101.98,29.03l-4.7,4.8c.66.46,1.34.69,2.04.69.92,0,1.71-.33,2.36-.99.65-.66.97-1.46.97-2.41,0-.75-.22-1.44-.66-2.08ZM108.81,31.77l2.8,3.86h-1.67l-2.58-3.7h-.25v3.7h-1.37v-9.05h1.6c1.2,0,2.06.22,2.59.67.59.5.88,1.16.88,1.98,0,.64-.18,1.19-.55,1.65-.37.46-.85.76-1.45.88ZM107.11,30.74h.43c1.29,0,1.94-.49,1.94-1.48,0-.93-.63-1.39-1.89-1.39h-.49v2.87Z"/>
</svg>