<?xml version="1.0" encoding="UTF-8"?>
<svg id="Layer_1" data-name="Layer 1" xmlns="http://www.w3.org/2000/svg" xmlns:xlink="http://www.w3.org/1999/xlink" viewBox="0 0 337.04 418.22">
  <defs>
    <style>
      .cls-1 {
        fill: none;
      }

      .cls-2 {
        fill: #060606;
      }

      .cls-3 {
        fill: #224097;
      }

      .cls-4 {
        fill: #e7edff;
      }

      .cls-5 {
        clip-path: url(#clippath);
      }
    </style>
    <clipPath id="clippath">
      <path class="cls-1" d="M10.62,0h315.81c5.86,0,10.62,4.76,10.62,10.64v396.93c0,5.88-4.75,10.64-10.62,10.64H10.62c-5.86,0-10.62-4.76-10.62-10.64V10.64C0,4.76,4.75,0,10.62,0Z"/>
    </clipPath>
  </defs>
  <g class="cls-5">
    <g>
      <rect class="cls-2" width="337.04" height="418.22" rx="20" ry="20"/>
      <path class="cls-4" d="M0,10.64C0,4.76,4.75,0,10.62,0h352.44c5.86,0,10.62,4.76,10.62,10.64v466.64c0,5.88-4.75,10.64-10.62,10.64H10.62c-5.86,0-10.62-4.76-10.62-10.64V10.64Z"/>
      <path class="cls-3" d="M5.82,14.48C10.86-8.91,1-28-9.55-28.2l3.33,583.69H-.08s4.2-.53,5.44-1.97c1.24-1.44,4.48-6.89,4.48-6.89,1.12-2.4,17.19-39.55,14.89-63.42-2.77-28.65-11.07-27.67-19.37-42.09-6.64-11.54-1.9-25.56,2.77-37.94,2.25-2.9,7.81-14.7,11.99-38.73,4.18-24.03-4.51-47.43-9.38-56.12-4.41-8.43-11.1-31.82-2.61-57.9,10.61-32.61,10.92-30.94,11.99-39.52,2.13-17.1-7.61-40.15-13.75-51.76-3.49-11.41-13.21-23.96,6.83-44.67,20.04-20.71-4.75-65.63-5.99-67.39-2.1-6.06-6.42-9.21-1.38-32.61Z"/>
    </g>
  </g>
</svg>