<svg width="47" height="48" viewBox="0 0 47 48" fill="none" xmlns="http://www.w3.org/2000/svg">
<path d="M34.2709 13H34.2905M13.7084 4H33.2917C38.6995 4 43.0834 8.47715 43.0834 14V34C43.0834 39.5228 38.6995 44 33.2917 44H13.7084C8.30063 44 3.91675 39.5228 3.91675 34V14C3.91675 8.47715 8.30063 4 13.7084 4ZM31.3334 22.74C31.5751 24.4045 31.2967 26.1044 30.5379 27.598C29.779 29.0916 28.5783 30.3028 27.1066 31.0593C25.6349 31.8159 23.967 32.0792 22.3403 31.8119C20.7136 31.5445 19.2109 30.7602 18.0458 29.5703C16.8808 28.3805 16.1127 26.8457 15.851 25.1844C15.5892 23.5231 15.847 21.8198 16.5878 20.3167C17.3286 18.8137 18.5145 17.5875 19.977 16.8125C21.4395 16.0375 23.104 15.7532 24.7338 16C26.3963 16.2518 27.9354 17.0429 29.1238 18.2566C30.3122 19.4703 31.0869 21.0422 31.3334 22.74Z" stroke="white" stroke-width="4" stroke-linecap="round" stroke-linejoin="round"/>
</svg>
